<svg width="26" height="26" viewBox="0 0 26 26" fill="none" xmlns="http://www.w3.org/2000/svg">
<path d="M10.8334 16.25L16.4559 13L10.8334 9.74996V16.25ZM23.3567 7.76746C23.4976 8.27663 23.5951 8.95913 23.6601 9.82579C23.7359 10.6925 23.7684 11.44 23.7684 12.09L23.8334 13C23.8334 15.3725 23.6601 17.1166 23.3567 18.2325C23.0859 19.2075 22.4576 19.8358 21.4826 20.1066C20.9734 20.2475 20.0417 20.345 18.6117 20.41C17.2034 20.4858 15.9142 20.5183 14.7226 20.5183L13.0001 20.5833C8.46091 20.5833 5.63341 20.41 4.51758 20.1066C3.54258 19.8358 2.91425 19.2075 2.64341 18.2325C2.50258 17.7233 2.40508 17.0408 2.34008 16.1741C2.26425 15.3075 2.23175 14.56 2.23175 13.91L2.16675 13C2.16675 10.6275 2.34008 8.88329 2.64341 7.76746C2.91425 6.79246 3.54258 6.16413 4.51758 5.89329C5.02675 5.75246 5.95841 5.65496 7.38841 5.58996C8.79675 5.51413 10.0859 5.48163 11.2776 5.48163L13.0001 5.41663C17.5392 5.41663 20.3667 5.58996 21.4826 5.89329C22.4576 6.16413 23.0859 6.79246 23.3567 7.76746Z" fill="#F8F8F8"/>
</svg>
