<svg width="26" height="26" viewBox="0 0 26 26" fill="none" xmlns="http://www.w3.org/2000/svg">
<path d="M8.45008 2.16663H17.5501C21.0167 2.16663 23.8334 4.98329 23.8334 8.44996V17.55C23.8334 19.2164 23.1714 20.8146 21.9931 21.9929C20.8147 23.1713 19.2165 23.8333 17.5501 23.8333H8.45008C4.98341 23.8333 2.16675 21.0166 2.16675 17.55V8.44996C2.16675 6.78352 2.82874 5.18533 4.00709 4.00697C5.18545 2.82862 6.78364 2.16663 8.45008 2.16663ZM8.23341 4.33329C7.19907 4.33329 6.20709 4.74418 5.4757 5.47558C4.74431 6.20697 4.33341 7.19895 4.33341 8.23329V17.7666C4.33341 19.9225 6.07758 21.6666 8.23341 21.6666H17.7667C18.8011 21.6666 19.7931 21.2557 20.5245 20.5243C21.2559 19.7929 21.6667 18.801 21.6667 17.7666V8.23329C21.6667 6.07746 19.9226 4.33329 17.7667 4.33329H8.23341ZM18.6876 5.95829C19.0467 5.95829 19.3912 6.10096 19.6451 6.35492C19.8991 6.60887 20.0417 6.95331 20.0417 7.31246C20.0417 7.67161 19.8991 8.01604 19.6451 8.27C19.3912 8.52395 19.0467 8.66663 18.6876 8.66663C18.3284 8.66663 17.984 8.52395 17.73 8.27C17.4761 8.01604 17.3334 7.67161 17.3334 7.31246C17.3334 6.95331 17.4761 6.60887 17.73 6.35492C17.984 6.10096 18.3284 5.95829 18.6876 5.95829ZM13.0001 7.58329C14.4367 7.58329 15.8144 8.15398 16.8302 9.1698C17.8461 10.1856 18.4167 11.5634 18.4167 13C18.4167 14.4365 17.8461 15.8143 16.8302 16.8301C15.8144 17.8459 14.4367 18.4166 13.0001 18.4166C11.5635 18.4166 10.1857 17.8459 9.16992 16.8301C8.1541 15.8143 7.58341 14.4365 7.58341 13C7.58341 11.5634 8.1541 10.1856 9.16992 9.1698C10.1857 8.15398 11.5635 7.58329 13.0001 7.58329ZM13.0001 9.74996C12.1381 9.74996 11.3115 10.0924 10.702 10.7019C10.0925 11.3114 9.75008 12.138 9.75008 13C9.75008 13.8619 10.0925 14.6886 10.702 15.2981C11.3115 15.9075 12.1381 16.25 13.0001 16.25C13.862 16.25 14.6887 15.9075 15.2982 15.2981C15.9077 14.6886 16.2501 13.8619 16.2501 13C16.2501 12.138 15.9077 11.3114 15.2982 10.7019C14.6887 10.0924 13.862 9.74996 13.0001 9.74996Z" fill="#F8F8F8"/>
</svg>
