<svg width="36" height="32" viewBox="0 0 36 32" fill="none" xmlns="http://www.w3.org/2000/svg">
<path d="M3.12769 14.0645H34.3777C34.7921 14.0645 35.1895 14.2291 35.4825 14.5221C35.7756 14.8151 35.9402 15.2126 35.9402 15.627C35.9402 16.0414 35.7756 16.4388 35.4825 16.7318C35.1895 17.0248 34.7921 17.1895 34.3777 17.1895H3.12769C2.71328 17.1895 2.31586 17.0248 2.02283 16.7318C1.72981 16.4388 1.56519 16.0414 1.56519 15.627C1.56519 15.2126 1.72981 14.8151 2.02283 14.5221C2.31586 14.2291 2.71328 14.0645 3.12769 14.0645Z" fill="#F8F8F8"/>
<path d="M3.77467 15.627L16.734 28.5832C17.0274 28.8766 17.1923 29.2745 17.1923 29.6895C17.1923 30.1044 17.0274 30.5023 16.734 30.7957C16.4406 31.0891 16.0427 31.2539 15.6278 31.2539C15.2129 31.2539 14.8149 31.0891 14.5215 30.7957L0.459043 16.7332C0.313533 16.5881 0.198087 16.4157 0.119317 16.2258C0.0405464 16.036 0 15.8325 0 15.627C0 15.4214 0.0405464 15.2179 0.119317 15.0281C0.198087 14.8383 0.313533 14.6659 0.459043 14.5207L14.5215 0.458223C14.8149 0.164828 15.2129 0 15.6278 0C16.0427 0 16.4406 0.164828 16.734 0.458223C17.0274 0.751619 17.1923 1.14955 17.1923 1.56447C17.1923 1.9794 17.0274 2.37733 16.734 2.67072L3.77467 15.627Z" fill="#F8F8F8"/>
</svg>
