<svg width="44" height="33" viewBox="0 0 44 33" fill="none" xmlns="http://www.w3.org/2000/svg">
<path d="M3.08333 0H18.5C19.3178 0 20.102 0.33802 20.6802 0.939699C21.2585 1.54138 21.5833 2.35743 21.5833 3.20833C21.5833 4.05924 21.2585 4.87529 20.6802 5.47697C20.102 6.07865 19.3178 6.41667 18.5 6.41667H3.08333C2.26558 6.41667 1.48132 6.07865 0.903087 5.47697C0.32485 4.87529 0 4.05924 0 3.20833C0 2.35743 0.32485 1.54138 0.903087 0.939699C1.48132 0.33802 2.26558 0 3.08333 0ZM24.6667 25.6667H40.0833C40.9011 25.6667 41.6853 26.0047 42.2636 26.6064C42.8418 27.208 43.1667 28.0241 43.1667 28.875C43.1667 29.7259 42.8418 30.542 42.2636 31.1436C41.6853 31.7453 40.9011 32.0833 40.0833 32.0833H24.6667C23.8489 32.0833 23.0647 31.7453 22.4864 31.1436C21.9082 30.542 21.5833 29.7259 21.5833 28.875C21.5833 28.0241 21.9082 27.208 22.4864 26.6064C23.0647 26.0047 23.8489 25.6667 24.6667 25.6667ZM3.08333 12.8333H40.0833C40.9011 12.8333 41.6853 13.1714 42.2636 13.773C42.8418 14.3747 43.1667 15.1908 43.1667 16.0417C43.1667 16.8926 42.8418 17.7086 42.2636 18.3103C41.6853 18.912 40.9011 19.25 40.0833 19.25H3.08333C2.26558 19.25 1.48132 18.912 0.903087 18.3103C0.32485 17.7086 0 16.8926 0 16.0417C0 15.1908 0.32485 14.3747 0.903087 13.773C1.48132 13.1714 2.26558 12.8333 3.08333 12.8333Z" fill="white"/>
</svg>
